<svg width="913" height="681" viewBox="0 0 913 681" fill="none" xmlns="http://www.w3.org/2000/svg">
<path d="M639 612H135V614H639V612Z" fill="#3F3D56"/>
<path d="M402.7 318.153C402.7 318.153 391.899 366.584 413.502 357.974C435.106 349.364 422.144 316 422.144 316L402.7 318.153Z" fill="#FFDFCC"/>
<path d="M602.131 334C602.131 334 627.745 364.845 611.736 371.226C595.727 377.608 587.189 342.509 589.323 339.318C591.458 336.127 602.131 334 602.131 334Z" fill="#FFDFCC"/>
<path d="M517.3 95L513 128.163L548.474 141L556 103.558L517.3 95Z" fill="#FFDFCC"/>
<path d="M537.528 127.249C537.528 127.249 519.381 118.293 515.609 111L507.556 118.688C507.556 118.688 449.752 113.338 441.189 142.23C432.625 171.122 440.118 275.99 440.118 275.99C440.118 275.99 428.344 323.074 431.555 324.144C434.766 325.214 474.372 344.475 530.035 333.774C530.035 333.774 554.655 329.494 558.936 332.704C563.218 335.915 556.796 281.34 556.796 281.34C556.796 281.34 599.613 185.033 592.12 173.262C584.627 161.491 551.443 136.879 551.443 136.879L553.584 125.108C553.584 125.108 538.598 131.529 537.528 127.249Z" fill="#EAC400"/>
<path d="M449.298 135C449.298 135 430.174 144.614 426.987 159.568C423.8 174.523 394.051 298.432 397.239 305.909C400.426 313.386 399.364 323 399.364 323L426.987 319.795C426.987 319.795 421.675 312.318 424.862 309.114C428.049 305.909 431.237 295.227 429.112 290.955C426.987 286.682 424.862 294.159 436.549 280.273C448.236 266.386 474.797 139.273 449.298 135Z" fill="#EAC400"/>
<path d="M585.244 172C585.244 172 594.288 172.534 596.417 187.485C598.545 202.435 602.269 294.809 602.269 294.809C602.269 294.809 616.102 324.71 610.782 328.981C605.461 333.253 608.654 339.66 608.654 339.66L589.5 345L548 279.858L585.244 172Z" fill="#EAC400"/>
<path d="M434.212 320C434.212 320 427.783 321.07 427.783 344.617C427.783 368.164 415.997 440.945 423.497 452.719C430.997 464.492 432.069 570.453 432.069 570.453C432.069 570.453 452.426 579.016 469.569 551.187L471.712 536.203L475.998 463.422L493.141 372.445L516.713 473.055C516.713 473.055 513.499 594 525.285 594C537.071 594 559.571 584.367 559.571 584.367C559.571 584.367 564.929 573.664 562.786 568.312C560.643 562.961 558.5 564.031 560.643 559.75C562.786 555.469 566 444.156 566 444.156C566 444.156 561.714 329.633 556.357 326.422C551 323.211 434.212 320 434.212 320Z" fill="#222120"/>
<path d="M434.192 566.037L417.115 584.14C417.115 584.14 386.162 612.89 412.845 613.955C439.529 615.02 454.472 596.918 454.472 594.788C454.472 592.658 455.54 585.204 463.011 585.204C470.482 585.204 488.627 567.102 484.358 559.648C480.089 552.194 467.28 549 467.28 549L434.192 566.037Z" fill="#222120"/>
<path d="M526.689 589.961C526.689 589.961 513.861 615.615 521.344 620.96C528.827 626.304 530.965 628.442 530.965 628.442C530.965 628.442 537.379 627.373 536.31 636.993C535.241 646.613 574.793 651.958 576.931 644.476C579.069 636.993 578 622.029 573.724 617.753C569.448 613.477 556.62 583.548 556.62 583.548C556.62 583.548 542.723 567.514 526.689 589.961Z" fill="#222120"/>
<path d="M870 420H699V422H870V420Z" fill="#3F3D56"/>
<path d="M230 578H189V620H230V578Z" fill="#888888"/>
<path d="M225 614H181V571H225V614ZM183.2 611.85H222.8V573.15H183.2L183.2 611.85Z" fill="#3F3D56"/>
<path d="M275.12 217.669L248.999 227.771L258.752 252.987L284.872 242.885L275.12 217.669Z" fill="#F2F2F2"/>
<path d="M280 241.131L252.331 252L242 224.869L269.669 214L280 241.131ZM253.198 250.1L278.1 240.318L268.802 215.9L243.9 225.682L253.198 250.1Z" fill="#3F3D56"/>
<path d="M755.086 525.071L745.981 498.586L720.413 507.376L729.518 533.861L755.086 525.071Z" fill="#F2F2F2"/>
<path d="M731.717 529L722 501.22L749.284 492L759 519.78L731.717 529ZM723.85 502.148L732.595 527.15L757.15 518.852L748.405 493.85L723.85 502.148Z" fill="#3F3D56"/>
<path d="M172.73 393.008C187.918 393.341 200 404.604 200 404.604C200 404.604 187.457 415.326 172.27 414.992C157.082 414.659 145 403.396 145 403.396C145 403.396 157.543 392.674 172.73 393.008Z" fill="#EAC400"/>
<path d="M95.3605 341.375C109.168 348.008 125 343.51 125 343.51C125 343.51 118.447 328.258 104.639 321.625C90.8323 314.992 75 319.49 75 319.49C75 319.49 81.5534 334.742 95.3605 341.375Z" fill="#EAC400"/>
<path d="M97.5183 334.139C112.706 332.735 126 342.459 126 342.459C126 342.459 114.67 354.458 99.4817 355.861C84.2938 357.265 71 347.541 71 347.541C71 347.541 82.3305 335.542 97.5183 334.139Z" fill="#222120"/>
<path d="M153.152 337.47C151.682 352.658 161.337 366 161.337 366C161.337 366 173.377 354.718 174.848 339.53C176.318 324.342 166.663 311 166.663 311C166.663 311 154.623 322.282 153.152 337.47Z" fill="#222120"/>
<path d="M224.727 430.877C216.696 443.856 219.459 460 219.459 460C219.459 460 235.242 455.101 243.273 442.123C251.304 429.144 248.541 413 248.541 413C248.541 413 232.758 417.899 224.727 430.877Z" fill="#222120"/>
<path d="M201.315 573L202.481 572.213C198.37 566.254 196.125 559.21 196.032 551.975C196.065 541.391 201.27 531.601 206.305 522.134C207.239 520.377 208.17 518.625 209.066 516.875C212.827 509.737 215.824 502.223 218.008 494.458C225.816 465.478 218.128 431.286 197.442 402.996C181.033 380.553 156.57 360.929 122.658 343L122 344.242C155.719 362.069 180.024 381.559 196.306 403.825C216.743 431.775 224.347 465.52 216.648 494.093C214.49 501.763 211.529 509.185 207.813 516.235C206.92 517.979 205.992 519.724 205.061 521.475C199.947 531.093 194.658 541.039 194.624 551.97C194.717 559.488 197.046 566.808 201.315 573V573Z" fill="#3F3D56"/>
<path d="M56.5 344C63.9558 344 70 338.18 70 331C70 323.82 63.9558 318 56.5 318C49.0442 318 43 323.82 43 331C43 338.18 49.0442 344 56.5 344Z" fill="#222120"/>
<path d="M784.248 410L612 348.06L642.751 262.334L750.001 236L815 324.275L784.248 410Z" fill="#2F2E41"/>
<path d="M763.655 393L635 343.956C668.399 299.218 683.334 267.66 683.345 218L812 267.044C782.111 309.502 769.612 341.419 763.655 393Z" fill="#F2F2F2"/>
<path d="M773.32 273.852L706.7 248.457L705.519 251.555L772.139 276.951L773.32 273.852Z" fill="#3F3D56"/>
<path d="M768.596 286.246L701.975 260.851L700.794 263.95L767.414 289.345L768.596 286.246Z" fill="#3F3D56"/>
<path d="M763.871 298.641L697.251 273.246L696.069 276.344L762.69 301.74L763.871 298.641Z" fill="#3F3D56"/>
<path d="M759.146 311.035L692.526 285.64L691.345 288.739L757.965 314.134L759.146 311.035Z" fill="#3F3D56"/>
<path d="M754.421 323.43L687.801 298.035L686.62 301.133L753.24 326.529L754.421 323.43Z" fill="#3F3D56"/>
<path d="M749.697 335.824L683.076 310.429L681.895 313.528L748.516 338.923L749.697 335.824Z" fill="#3F3D56"/>
<path d="M744.972 348.219L678.352 322.824L677.171 325.922L743.791 351.317L744.972 348.219Z" fill="#3F3D56"/>
<path d="M740.247 360.613L673.627 335.218L672.446 338.317L739.066 363.712L740.247 360.613Z" fill="#3F3D56"/>
<path d="M780.265 421L608 359.356L642.734 263L715.48 330.959L815 324.645L780.265 421Z" fill="#222120"/>
<path d="M692.391 391L607 360.193L627.806 302L629.504 302.612L609.307 359.1L693 389.295L692.391 391Z" fill="#EAC400"/>
<path d="M662.137 328.721L636.979 319.686L633.365 329.749L658.523 338.784L662.137 328.721Z" fill="#EAC400"/>
<path d="M377.941 613L243 612.928L244.059 537L311.121 567.21L379 538.892L377.941 613Z" fill="#222120"/>
<path d="M273.431 578.796L253.741 578.521L253.631 586.397L273.321 586.672L273.431 578.796Z" fill="#EAC400"/>
<path d="M379 539.018L311.168 574L244 539.018V537H379V539.018Z" fill="#EAC400"/>
<path d="M770.549 253.028C772.158 248.806 763.988 241.772 752.299 237.316C740.611 232.86 729.831 232.671 728.222 236.892C726.612 241.114 734.783 248.149 746.472 252.604C758.16 257.06 768.94 257.249 770.549 253.028Z" fill="#EAC400"/>
<path d="M788.988 124.555C784.705 123.211 780.202 122.731 775.736 123.143C771.27 123.556 766.927 124.853 762.958 126.959C758.988 129.066 755.467 131.942 752.598 135.422C749.729 138.903 747.567 142.919 746.235 147.243C740.635 165.428 755.897 232 755.897 232C755.897 232 805.859 185.905 811.46 167.72C814.149 158.987 813.293 149.534 809.078 141.439C804.864 133.344 797.637 127.27 788.988 124.555V124.555ZM774.044 173.079C770.989 172.119 768.284 170.267 766.271 167.756C764.258 165.244 763.029 162.187 762.737 158.97C762.446 155.753 763.106 152.521 764.633 149.682C766.161 146.844 768.488 144.527 771.321 143.024C774.153 141.521 777.363 140.899 780.545 141.238C783.727 141.577 786.738 142.861 789.197 144.928C791.656 146.995 793.453 149.751 794.361 152.849C795.268 155.947 795.245 159.247 794.295 162.331C793.665 164.38 792.64 166.282 791.281 167.931C789.922 169.58 788.255 170.942 786.374 171.94C784.494 172.938 782.437 173.552 780.321 173.747C778.206 173.943 776.073 173.715 774.044 173.079V173.079Z" fill="#EAC400"/>
<path d="M582.173 64.8067C579.263 67.7126 576.571 77.0031 575.589 76.7836C573.949 73.0624 572.364 80.1412 571.9 82.2742C571.918 81.1517 571.644 80.0438 571.105 79.0587C571.089 76.9324 571.087 74.5786 571.093 73.4887C571.292 71.4843 571.291 69.465 571.09 67.4608C570.751 68.0812 567.726 73.6111 569.505 68.2252C570.706 64.5731 569.542 57.9744 568.557 53.8318C568.538 53.757 568.491 53.6923 568.426 53.6508C568.361 53.6093 568.282 53.5943 568.207 53.6087C568.147 53.6272 568.095 53.6636 568.057 53.7128C568.019 53.7621 567.997 53.8218 567.994 53.8839C567.914 58.5666 567.237 63.2199 565.979 67.7312C566.339 65.2578 564.321 55.722 562.754 51.6288C562.586 51.2026 562.423 51.0066 562.233 50.9981C560.996 50.8181 559.482 59.3806 558.827 59.2852C558.677 59.2634 558.679 58.3261 558.593 57.3378C558.273 56.3856 557.737 55.5203 557.027 54.8095C556.318 54.0988 555.453 53.5618 554.501 53.2406C552.623 52.4265 550.522 52.2829 548.551 52.834C545.077 53.0364 542.392 58.9983 539.176 61.898C541.825 57.6338 541.443 52.8903 537.981 56.9596C535.158 60.1844 528.172 64.6595 525.248 66.4727C524.766 66.766 524.667 66.3882 525.028 65.8857C527.738 62.4795 530.027 58.7586 531.845 54.8039C533.829 50.1174 529.909 48.7816 527.947 48.3239C527.339 48.2085 526.709 48.3212 526.179 48.6406C525.961 48.8194 525.634 49.0971 525.234 49.4789C523.705 51.0563 522.413 52.847 521.398 54.7952C519.222 58.413 517.57 62.3218 516.494 66.4042C515.453 71.0556 514.85 74.2782 514.501 76.6766C513.65 76.744 513.178 76.6946 513.321 76.5048C514.202 75.3128 512.729 66.1051 512.46 65.4537C512.192 64.8023 511.858 66.3037 511.867 68.0845C510.578 68.3944 507.346 48.5215 507.346 48.5215L507.311 47.7127C506.273 43.1415 511.624 33.8553 515.237 31.511C513.328 31.4818 513.68 31.1695 512.123 31.6126C512.865 30.1899 517.629 27.305 528.178 24.3817C538.727 21.4584 556.366 27.1443 563.983 30.0323C569.73 32.3611 570.96 37.9745 576.532 41.6364C583.132 46.2516 580.064 48.9241 582.371 51.6134C584.678 54.3027 585.087 61.8821 582.173 64.8067Z" fill="#1F1300"/>
<path d="M568.823 92.7714C567.318 97.0859 565.242 101.179 562.65 104.942C561.795 106.081 560.823 107.374 559.719 108.649C556.699 112.304 552.565 115.989 547.689 116.619C543.361 116.639 537.585 117.54 533.71 115.503C529.343 113.189 525.483 110.024 522.357 106.197C517.732 100.44 514.908 93.4458 514.241 86.0913C514.237 86.0467 514.244 86.0018 514.26 85.9602C513.839 82.3191 513.968 78.6352 514.645 75.0328C514.967 72.8217 515.569 70.0008 516.403 66.2379C517.477 62.1546 519.129 58.2455 521.308 54.6289C522.314 52.6757 523.607 50.8838 525.143 49.3127C525.543 48.9308 525.873 48.6344 526.091 48.4556C526.625 48.1499 527.251 48.0442 527.856 48.1576C529.826 48.5591 533.738 49.9512 531.755 54.6376C529.929 58.5882 527.64 62.3082 524.937 65.7194C524.582 66.1844 524.675 66.5998 525.158 66.3065C528.082 64.4932 535.056 60.093 537.89 56.7933C541.412 52.7135 541.809 57.4784 539.085 61.7318C539.085 61.7318 539.069 61.8442 539.085 61.7318C542.317 58.8535 544.984 52.8889 548.477 52.6892C550.472 52.1155 552.607 52.2701 554.499 53.1254C555.453 53.4427 556.319 53.9783 557.03 54.6896C557.74 55.4009 558.275 56.2683 558.591 57.2226C558.596 57.8483 558.679 58.471 558.838 59.0763C559.512 59.1745 561 50.6655 562.263 50.792C562.432 50.8165 562.614 51.0152 562.765 51.4199C564.337 55.4757 566.351 65.049 566.007 67.5438C567.253 63.0302 567.93 58.3783 568.022 53.6965C568.018 53.6328 568.037 53.5698 568.076 53.5192C568.115 53.4687 568.171 53.4339 568.234 53.4213C568.31 53.4069 568.388 53.4219 568.453 53.4634C568.518 53.5049 568.565 53.5696 568.584 53.6444C569.57 57.787 570.742 64.3295 569.514 68.0351C567.735 73.4209 570.778 67.8938 571.12 67.2547C571.325 69.2581 571.32 71.2775 571.104 73.2798C571.117 74.3724 571.127 76.804 571.111 79.0212C571.118 80.4191 571.125 81.6831 571.137 82.3927C570.77 85.9302 569.993 89.413 568.823 92.7714V92.7714Z" fill="#FFE2D4"/>
<path d="M514.242 85.9574C513.117 84.7414 512.64 78.9506 512.472 76.4196C512.917 73.3653 512.176 73.9846 512.597 71.6158C513.369 69.4702 514.19 72.7661 514.626 75.03C513.95 78.6325 513.82 82.3163 514.242 85.9574V85.9574Z" fill="#F5D6C1"/>
<path d="M575.801 76.6422C574.375 80.2616 575.31 80.015 573.736 83.8617C573.279 87.3233 571.534 90.4855 568.85 92.7179C570.026 89.3612 570.809 85.8792 571.182 82.342C571.171 81.6323 571.155 80.4245 571.156 78.9705C572.351 76.9438 574.978 72.6956 575.826 76.0719C575.876 76.2602 575.867 76.459 575.801 76.6422Z" fill="#F5D6C1"/>
</svg>
