<svg width="151" height="233" viewBox="0 0 151 233" fill="none" xmlns="http://www.w3.org/2000/svg">
<path fill-rule="evenodd" clip-rule="evenodd" d="M148.343 158.843C147.674 160.213 146.823 161.487 145.814 162.629C140.676 168.483 132.006 170.248 125.483 168.992C124.547 168.811 123.627 168.556 122.731 168.228C121.952 166.129 121.14 164.013 120.361 161.866C121.268 192.088 124.338 211.653 125.356 232.904H26.996C27.6323 228.748 28.1626 224.675 28.5868 220.688C30.0301 207.894 30.673 195.021 30.5117 182.146C30.5117 176.563 30.2731 171.012 29.9867 165.651C28.8125 166.037 27.6175 166.355 26.4074 166.606C20.5303 167.872 14.4257 167.598 8.68573 165.81H8.36757L7.73125 165.588L7.17446 165.365C5.30905 164.629 3.57413 163.598 2.03613 162.311C3.87142 153.917 5.18372 145.417 5.96544 136.86C5.96544 123.34 4.9155 112.841 11.5174 102.264C12.8055 101.025 14.1597 99.8566 15.574 98.7641L16.9898 97.6984L18.1511 96.8712L19.2487 96.1236C20.3305 95.4078 21.4282 94.7238 22.5576 94.0558L23.878 93.2922C24.7529 92.7991 25.6438 92.306 26.5506 91.8288C28.3482 90.8744 30.1776 89.9519 32.023 89.077C38.3862 86.0388 44.7495 83.2552 50.8741 79.8034C52.6717 79.708 54.0557 77.497 55.6465 76.3517L58.0009 76.7335C68.5799 78.3241 79.2701 79.6444 89.9127 77.2584L92.6966 76.5426C94.9874 77.6401 96.5941 79.7239 99.553 79.8512C110.88 85.7843 123.813 88.9656 133.612 97.6825C139.487 108.251 142.759 120.067 143.157 132.152C144.043 141.192 145.779 150.129 148.343 158.843Z" fill="#EAC400"/>
<path fill-rule="evenodd" clip-rule="evenodd" d="M50.89 89.0452C63.012 109.294 86.7947 106.542 97.2622 87.1205C84.8539 104.268 64.9687 105.493 50.89 89.0452ZM33.6774 216.155C32.023 217.746 30.3367 219.289 28.6187 220.784C28.6187 220.784 28.6187 220.879 28.6187 220.927L28.38 222.915C28.3871 223.021 28.3871 223.127 28.38 223.233C27.9876 226.415 27.5369 229.66 27.0278 232.968H31.9116C35.4711 228.949 38.8012 224.732 41.886 220.338C50.8305 207.44 57.9604 193.375 63.0757 178.536C54.9469 192.296 45.0648 204.941 33.6774 216.155ZM31.9116 162.072C30.4349 154.747 29.9905 147.252 30.5913 139.803C24.6922 132.426 19.8716 124.248 16.2739 115.514C16.6814 121.766 17.9501 127.933 20.0442 133.838C16.3376 130.068 12.6469 126.267 8.90848 122.481C10.3561 134.22 15.2717 144.639 21.635 154.437L10.4993 151.256L23.703 159.702C19.5208 163.288 14.2935 165.431 8.79712 165.811C14.469 167.548 20.4877 167.827 26.2961 166.622C27.5818 166.355 28.8513 166.016 30.0981 165.604C30.2254 168.085 30.3367 170.567 30.4163 173.064C30.4163 173.891 30.4163 174.655 30.4163 175.577C30.4163 177.804 30.5117 180.047 30.5435 182.306C30.5361 182.253 30.5361 182.199 30.5435 182.147C32.9298 171.68 35.6819 161.213 39.118 150.795C40.1043 147.852 41.1384 144.893 42.2201 141.951C38.2278 148.375 34.7796 155.121 31.9116 162.12V162.072Z" fill="#8F7A0B"/>
<path fill-rule="evenodd" clip-rule="evenodd" d="M39.1497 150.699C36.6998 157.984 34.584 165.222 32.8819 172.459C32.5089 170.016 31.5239 167.707 30.0184 165.747C30.1457 168.228 30.257 170.71 30.3525 173.223C30.3525 174.05 30.3525 174.814 30.3525 175.736C30.3525 177.963 30.4479 180.206 30.4797 182.465C30.6251 195.297 29.9822 208.126 28.5549 220.879C28.5549 220.879 28.5549 220.975 28.5549 221.022L28.3162 223.011C28.3233 223.117 28.3233 223.223 28.3162 223.329C27.9238 226.51 27.4731 229.755 26.9641 233.064H29.9866C31.8657 227.61 33.1095 221.957 33.6932 216.219C32.7228 194.092 35.284 172.459 39.1338 151.001C39.1584 150.903 39.1638 150.8 39.1497 150.699ZM31.8956 233H34.0273C36.5407 228.758 39.1603 224.548 41.8859 220.37L42.0609 220.1C38.9101 224.582 35.5166 228.888 31.8956 233ZM26.5504 91.8288C25.6437 92.306 24.7528 92.7991 23.8779 93.2922L22.5575 94.0558C21.428 94.7238 20.3304 95.4078 19.2486 96.1236L18.1509 96.8712L16.9897 97.6984L15.5738 98.7641C14.1454 99.8517 12.7803 101.02 11.4854 102.264C4.89947 112.841 5.94941 123.34 5.94941 136.86C5.14548 145.385 3.82266 153.852 1.98828 162.216C3.34475 163.379 4.87441 164.323 6.5221 165.015L7.14251 165.27L7.6993 165.492L8.33562 165.715L8.6856 165.81C7.71029 165.123 6.89825 164.23 6.30715 163.193C5.71604 162.157 5.36036 161.003 5.26536 159.814C6.09258 153.849 6.85617 147.916 7.74702 141.935C8.9258 144.436 10.6879 146.618 12.8854 148.297C6.23575 133.297 5.80623 119.061 11.74 105.588C12.6308 106.097 13.4899 106.59 14.3966 107.083C16.4965 99.6867 23.5915 94.1671 32.0865 89.1883C30.1775 89.9519 28.3481 90.8744 26.5504 91.8288Z" fill="url(#paint0_linear)"/>
<path fill-rule="evenodd" clip-rule="evenodd" d="M149.886 233H132.865C131.274 224.331 128.092 217.507 127.249 208.758C126.199 198.355 126.804 187.873 126.565 177.438C126.167 174.654 125.769 171.839 125.34 169.039H125.483C132.821 169.563 140.084 167.29 145.814 162.677C145.899 166.24 145.957 169.792 145.989 173.334C147.58 182.051 150.602 190.609 150.888 199.485C151.27 210.667 150.602 221.834 149.886 233Z" fill="#FFDFCC"/>
<path fill-rule="evenodd" clip-rule="evenodd" d="M23.8621 182.576C24.1484 202.873 19.3442 216.664 15.399 233H0.0794327C-0.0160161 221.213 -0.175098 209.426 0.604401 197.671C1.20891 188.748 3.59513 180.047 5.09049 171.251C5.24958 168.944 5.37684 166.892 5.53592 164.617C5.86999 164.761 6.20406 164.904 6.52223 165.015L7.14264 165.27L8.68573 165.81H8.86072C14.52 167.394 20.4642 167.677 26.2483 166.638H26.4551C25.5855 171.95 24.7211 177.263 23.8621 182.576Z" fill="#FFDFCC"/>
<path d="M102.066 29.0136C99.9984 31.7814 98.8848 39.8301 98.0417 39.7665C96.2281 36.8715 95.7668 42.9478 95.6395 44.7771C95.5182 43.8418 95.1564 42.954 94.5896 42.2002C94.3192 40.4346 94.0328 38.4781 93.9055 37.5714C93.8288 35.881 93.5837 34.2025 93.1738 32.5608C92.967 33.1175 91.1216 38.0804 91.9488 33.3879C92.5056 30.2066 90.7398 24.862 89.4195 21.5375C89.3946 21.4776 89.3479 21.4295 89.2888 21.4029C89.2296 21.3763 89.1626 21.3732 89.1013 21.3944C89.0542 21.417 89.0152 21.4535 88.9896 21.499C88.964 21.5446 88.953 21.5969 88.9581 21.6489C89.4579 25.5513 89.4579 29.5015 88.9581 33.4039C88.9581 31.3042 86.1265 23.6213 84.3289 20.4082C84.138 20.0741 83.9789 19.931 83.8198 19.9469C82.7699 19.9469 82.5471 27.248 81.9904 27.248C81.8631 27.248 81.7517 26.4686 81.5608 25.6573C81.1796 24.9045 80.6295 24.25 79.9534 23.745C79.2773 23.2401 78.4935 22.8983 77.6633 22.7464C76.0038 22.2968 74.2401 22.4316 72.6682 23.1282C69.8047 23.7167 68.2935 28.9977 65.9709 31.7973C67.6571 27.932 66.7663 24.0349 64.3801 27.8365C62.4234 30.8588 57.1578 35.424 54.9465 37.2851C54.5807 37.5873 54.4534 37.2851 54.692 36.8238C56.5329 33.6643 57.9858 30.2943 59.019 26.7867C60.1008 22.651 56.6805 22.0147 54.9943 21.8716C54.4746 21.8492 53.9649 22.0191 53.5625 22.3488C53.4034 22.5237 53.1648 22.7941 52.8785 23.16C51.7984 24.6562 50.9411 26.3011 50.3332 28.0433C48.9616 31.3142 48.0618 34.7632 47.6606 38.2872C47.3584 42.2797 47.247 45.0316 47.247 47.0676C46.547 47.2267 46.1493 47.2426 46.2448 47.0676C46.8334 45.9701 44.4949 38.494 44.1926 37.985C43.8904 37.4759 43.7949 38.7644 44.0177 40.2437C42.9836 40.6573 37.893 24.528 37.893 24.528L37.7658 23.8599C36.3499 20.1855 39.6747 11.8186 42.395 9.4326C40.8042 9.63938 41.0587 9.33716 39.8179 9.89389C40.2633 8.62136 43.8745 5.64683 52.2899 1.94059C60.7053 -1.76565 76.0566 0.827123 82.738 2.30644C87.7968 3.54715 89.499 8.06463 94.5737 10.4347C100.619 13.4729 98.3916 16.0657 100.635 18.0222C102.878 19.9787 104.134 26.23 102.066 29.0136Z" fill="#1F1300"/>
<path d="M94.3511 53.8757C93.6225 57.6443 92.3919 61.2982 90.6922 64.7399C90.1195 65.7897 89.4673 66.9827 88.7037 68.1757C86.6356 71.5797 83.6449 75.1428 79.6679 76.2563C76.0726 76.7971 71.3797 78.2446 67.9118 77.0198C64.0017 75.6244 60.4102 73.461 57.3488 70.6571C52.8071 66.431 49.6141 60.9585 48.1698 54.9255C48.161 54.8889 48.161 54.8507 48.1698 54.8142C47.3787 51.8383 47.0408 48.7603 47.1675 45.6838C47.1675 43.8068 47.3266 41.389 47.5653 38.1599C47.9641 34.6355 48.864 31.1861 50.2378 27.9161C50.8383 26.1706 51.6962 24.5247 52.7831 23.0327C53.0695 22.6669 53.3081 22.3806 53.4672 22.2056C53.8745 21.8868 54.382 21.7233 54.8989 21.7443C56.5852 21.8397 60.0054 22.5237 58.9237 26.6595C57.8835 30.1645 56.431 33.5338 54.5966 36.6965C54.358 37.126 54.4853 37.46 54.8512 37.1578C57.0624 35.2967 62.328 30.7952 64.2847 27.7093C66.7186 23.8917 67.6254 27.8047 65.8755 31.67C65.8755 31.67 65.8755 31.7655 65.8755 31.67C68.214 28.8864 69.7094 23.6054 72.5887 23.0168C74.1782 22.2985 75.9713 22.1688 77.6475 22.651C78.479 22.7993 79.2643 23.1397 79.9409 23.6451C80.6175 24.1505 81.1668 24.8068 81.545 25.5619C81.6252 26.0814 81.7695 26.589 81.9745 27.073C82.5472 27.073 82.754 19.8196 83.8199 19.7719C83.9631 19.7719 84.1381 19.915 84.313 20.2332C86.1107 23.4145 88.9423 31.1292 88.9582 33.2448C89.4485 29.3418 89.4485 25.3928 88.9582 21.4898C88.9474 21.4373 88.956 21.3826 88.9823 21.3358C89.0086 21.2891 89.0509 21.2534 89.1014 21.2353C89.1627 21.2142 89.2297 21.2172 89.2889 21.2438C89.348 21.2704 89.3947 21.3186 89.4196 21.3785C90.7399 24.7029 92.5057 29.9998 91.933 33.2289C91.1058 37.9213 92.9671 32.9585 93.1739 32.3858C93.5867 34.0265 93.8266 35.7058 93.8897 37.3964C94.0329 38.3031 94.3352 40.3232 94.5897 42.1684C94.7647 43.3296 94.9238 44.3794 95.0192 44.968C95.142 47.953 94.9177 50.9423 94.3511 53.8757Z" fill="#FFE2D4"/>
<path d="M48.1538 54.8141C47.072 53.9393 45.9744 49.1832 45.529 47.0994C45.529 44.5067 44.9881 45.1111 45.0517 43.091C45.4335 41.214 46.5153 43.8545 47.1516 45.6837C47.0249 48.7603 47.3628 51.8383 48.1538 54.8141Z" fill="#F5D6C1"/>
<path d="M98.2008 39.6233C97.4531 42.8046 98.2008 42.4865 97.3577 45.8746C97.3967 48.8075 96.3289 51.6473 94.3669 53.8279C94.9389 50.8952 95.1685 47.9059 95.051 44.9202C94.9555 44.3317 94.7965 43.3296 94.6215 42.1207C95.3692 40.2914 97.0395 36.442 98.1531 39.1461C98.2167 39.2968 98.2334 39.4631 98.2008 39.6233Z" fill="#F5D6C1"/>
<path d="M69.8525 95.6782C54.3739 91.7811 57.651 81.7918 58.0487 81.0123C58.4464 80.2329 57.6669 73.5203 57.3488 70.6571C60.4102 73.461 64.0017 75.6244 67.9118 77.0198C71.3797 78.2446 76.0726 76.7971 79.6679 76.2563C83.6449 75.111 86.5561 71.5797 88.7037 68.1757C88.7037 71.8978 89.0059 76.5108 90.7717 79.0399C95.8783 92.6401 82.2927 97.253 69.8525 95.6782Z" fill="#FFDFCC"/>
<defs>
<linearGradient id="paint0_linear" x1="22.0325" y1="233" x2="22.0325" y2="89.077" gradientUnits="userSpaceOnUse">
<stop stop-color="#FFE359"/>
<stop offset="1" stop-color="#FFE359" stop-opacity="0"/>
</linearGradient>
</defs>
</svg>
