<svg id="JP" xmlns="http://www.w3.org/2000/svg" viewBox="0 0 162.64 174"><defs><style>.cls-1{fill:#e2e2e2;}</style></defs><g id="Logo"><rect id="middle" class="cls-1" x="69.47" width="25" height="174" rx="12.5"/><path id="left" class="cls-1" d="M76.67,167.5l26-26a12.51,12.51,0,0,0,0-17.68h0a12.51,12.51,0,0,0-17.68,0L50.33,158.49a13,13,0,0,0,0,18L85,211.17a12.5,12.5,0,0,0,17.68-17.68Z" transform="translate(-46.68 -41)"/><path id="right" class="cls-1" d="M179.33,88.5l-26-26a12.51,12.51,0,0,1,0-17.68h0a12.51,12.51,0,0,1,17.68,0l34.65,34.65a13,13,0,0,1,0,18L171,132.17a12.5,12.5,0,0,1-17.68-17.68Z" transform="translate(-46.68 -41)"/></g></svg>